# xmcd
#
# Track frame offsets: 
#        150
#        10380
#        24877
#        37287
#        48070
#        59527
#        70472
#        82082
#
# Disc length: 1255 seconds
#
# Revision: 3
# Processed by: cddbd v1.5.2PL0 Copyright (c) Steve Scherf et al.
# Submitted via: ExactAudioCopy v0.99pb4
#
DISCID=6904e508
DTITLE=Charley Pride - The Best Of Charley Pride
DYEAR=1979
DGENRE=Country
TTITLE0=Just Between You And Me
TTITLE1=Kaw-Liga
TTITLE2=The Snakes Crawl At Night
TTITLE3=The Easy Part's Over
TTITLE4=The Day The World Stood Still
TTITLE5=I Know One
TTITLE6=Too Hard To Say I'm Sorry
TTITLE7=Let The Chips Fall
EXTD=
EXTT0=
EXTT1=
EXTT2=
EXTT3=
EXTT4=
EXTT5=
EXTT6=
EXTT7=
PLAYORDER=
